# xmcd
#
# Track frame offsets:
#	150
#	12668
#	24990
#	37550
#	50383
#	68920
#	83230
#	95735
#	104820
#	116400
#	127213
#	143163
#	161965
#	174355
#
# Disc length: 2445 seconds
#
# Revision: 1
# Processed by: cddbd v1.5PL3 Copyright (c) Steve Scherf et al.
# Submitted via: audiograbber 1.82.02
#
DISCID=bf098b0e
DTITLE=Texas Legacy - Jackrabbits In My Boots
DYEAR=1992
DGENRE=Country
TTITLE0=Texas Panhandle Sky
TTITLE1=Deep River
TTITLE2=Jackrabbits In My Boots
TTITLE3=Legacy Waltz
TTITLE4=Time On My Hands
TTITLE5=Get Up And Be Somebody
TTITLE6=Night The Guitars Played
TTITLE7=Thumbin' Down To Texas
TTITLE8=Silver Lake (Uncle Sib)
TTITLE9=She Should Have Warned My Heart
TTITLE10=I Never Learned To Dance
TTITLE11=Rodeo Romance
TTITLE12=Make Love Not Ware
TTITLE13=The Norther
EXTD=
EXTT0=
EXTT1=
EXTT2=
EXTT3=
EXTT4=
EXTT5=
EXTT6=
EXTT7=
EXTT8=
EXTT9=
EXTT10=
EXTT11=
EXTT12=
EXTT13=
PLAYORDER=
